<svg xmlns="http://www.w3.org/2000/svg" viewBox="0 0 30 34" fill="currentColor">
  <path d="M20.0101 26.3829C19.6556 26.5948 19.5368 27.0567 19.7461 27.4155C20.8284 29.2727 22.1936 31.0631 23.2891 32.5042C23.4362 32.697 23.6568 32.7981 23.8793 32.7981C24.0377 32.7981 24.198 32.7466 24.3338 32.6416C24.66 32.3878 24.7203 31.9125 24.4676 31.5823C23.1043 29.7938 21.9862 28.2954 21.0283 26.6501C20.8888 26.4115 20.6418 26.2779 20.3853 26.2779C20.259 26.2779 20.1289 26.3123 20.0101 26.3829ZM11.4646 22.575C11.061 22.6551 10.7971 23.0522 10.8762 23.4606C10.9743 23.9703 11.1911 24.7509 11.3326 25.2682L11.3608 25.3713C11.4532 25.7053 11.753 25.9248 12.0793 25.9248C12.1453 25.9248 12.2131 25.9153 12.2791 25.8962C12.6751 25.7855 12.9089 25.3674 12.7977 24.9666L12.7694 24.8616C12.6336 24.3673 12.4281 23.619 12.3395 23.1667C12.2697 22.8059 11.9567 22.5578 11.6079 22.5578C11.5607 22.5597 11.5117 22.5654 11.4646 22.575ZM3.1321 22.218C2.73047 22.3116 2.47968 22.7162 2.57396 23.1228C3.12456 25.5431 3.21506 26.0489 3.22826 26.1596C3.35648 27.1349 3.84862 28.4176 6.61291 28.3241C6.61857 28.3241 6.62422 28.3241 6.62988 28.3241C7.01831 28.3012 7.41617 28.2477 7.79895 28.1962C8.83226 28.0569 9.80711 27.9271 10.584 28.3546C10.6801 28.4081 10.7801 28.4615 10.8838 28.5169C11.7625 28.9864 12.7581 29.5189 14.0761 31.3551C14.1289 31.4277 14.2967 31.6758 14.7398 32.4298C14.8794 32.6664 15.1264 32.7981 15.3809 32.7981C15.511 32.7981 15.6412 32.7638 15.7618 32.6913C16.1163 32.4775 16.2313 32.0137 16.0202 31.6567C15.6713 31.065 15.4243 30.6642 15.2829 30.4676C13.7593 28.347 12.4997 27.6732 11.5796 27.1826C11.4834 27.1311 11.3891 27.0815 11.2986 27.03C10.0956 26.3657 8.77192 26.5432 7.60474 26.6997C7.23516 26.7494 6.88444 26.7971 6.55446 26.8162C4.83102 26.8734 4.76314 26.3886 4.70846 25.9668C4.68583 25.7835 4.59155 25.2567 4.02776 22.7849C3.94856 22.4356 3.64121 22.1989 3.3018 22.1989C3.24523 22.1989 3.18867 22.2047 3.1321 22.218ZM14.7474 21.3114C14.3401 21.3782 14.0648 21.7657 14.1308 22.178C14.7964 26.3352 17.0836 29.8969 19.2332 32.8306C19.3803 33.031 19.6047 33.136 19.8328 33.136C19.9875 33.136 20.1421 33.0883 20.276 32.9871C20.6059 32.739 20.6757 32.2656 20.4306 31.9316C18.2866 29.0017 16.2163 25.7645 15.6034 21.9355C15.545 21.5652 15.2282 21.3018 14.8681 21.3018C14.8266 21.3018 14.787 21.3057 14.7474 21.3114ZM18.0547 19.7443C17.6455 19.7825 17.3438 20.1509 17.3816 20.5651C17.5117 21.9852 17.8624 23.3785 18.4545 24.8215C18.5733 25.1117 18.8504 25.2873 19.1446 25.2873C19.2389 25.2873 19.3369 25.2682 19.4293 25.23C19.8102 25.0697 19.9893 24.6288 19.8328 24.2432C19.2992 22.9414 18.9843 21.6931 18.8674 20.4257C18.8316 20.0344 18.5073 19.7405 18.1245 19.7405C18.1 19.7405 18.0773 19.7424 18.0547 19.7443ZM21.4544 18.2345C21.0434 18.2402 20.7134 18.5819 20.7191 18.9999C20.7341 20.1356 20.8793 21.2312 21.1528 22.2562C21.2414 22.5941 21.5431 22.8155 21.8731 22.8155C21.9372 22.8155 22.0032 22.8078 22.0673 22.7887C22.4651 22.68 22.7008 22.2658 22.5933 21.8649C22.3539 20.9621 22.2257 19.9905 22.2125 18.9808C22.2068 18.5666 21.8749 18.2364 21.4676 18.2364C21.462 18.2345 21.4582 18.2345 21.4544 18.2345ZM25.3595 13.7452C24.9485 13.7452 24.6147 14.083 24.6147 14.4991C24.6147 15.1443 24.5506 15.7875 24.4262 16.4155C24.3451 16.824 24.6053 17.2229 25.0088 17.305C25.0597 17.3145 25.1087 17.3202 25.1578 17.3202C25.5047 17.3202 25.8158 17.0721 25.8875 16.7152C26.0327 15.9898 26.1062 15.2454 26.1062 14.501C26.1062 14.083 25.7725 13.7452 25.3595 13.7452ZM14.8021 13.8292C11.8964 15.3466 8.80398 16.8831 5.75496 17.5245C5.35145 17.6084 5.09312 18.0093 5.17609 18.4177C5.24962 18.7747 5.55886 19.019 5.90581 19.019C5.95672 19.019 6.00763 19.0133 6.05855 19.0037C9.29046 18.3223 12.4865 16.7362 15.4846 15.171C15.8505 14.9801 15.9938 14.5239 15.8052 14.1536C15.6732 13.894 15.4111 13.7452 15.1415 13.7452C15.0283 13.7452 14.9114 13.7719 14.8021 13.8292ZM18.4752 13.3844C18.066 13.4283 17.7681 13.8005 17.8115 14.2147C17.8379 14.4705 17.8284 14.7301 17.7832 14.9858C17.6323 15.8219 17.1195 16.5243 16.3746 16.9137C14.3646 17.9635 12.0151 19.1583 9.59027 20.023C8.04408 20.5746 7.13899 22.1589 7.43692 23.7908C7.4916 24.0924 7.55382 24.3902 7.62359 24.7032C7.70279 25.0525 8.01014 25.2892 8.34955 25.2892C8.40423 25.2892 8.4608 25.2835 8.51736 25.2701C8.919 25.1766 9.16978 24.7719 9.07739 24.3654C9.01139 24.0733 8.95482 23.7966 8.90203 23.516C8.73798 22.6208 9.23578 21.7504 10.0843 21.4469C12.5997 20.5498 15.0019 19.3282 17.0572 18.2555C18.2169 17.6504 19.0164 16.5567 19.2502 15.2569C19.3218 14.8599 19.3369 14.4571 19.2954 14.0582C19.2558 13.6707 18.9315 13.3825 18.5525 13.3825C18.528 13.3806 18.5016 13.3825 18.4752 13.3844ZM27.8372 12.7259C27.8221 13.2508 27.775 13.7891 27.6995 14.3254C27.3809 16.5987 26.5305 18.9159 25.2407 21.0232C25.237 21.0289 25.2351 21.0346 25.2313 21.0384C25.1012 21.2637 24.9598 21.4889 24.8089 21.7294C24.1848 22.7239 23.4777 23.8519 23.5588 25.1518C23.7323 27.4403 24.4205 28.4138 25.2181 29.5418L25.2671 29.6125C25.4123 29.8186 25.6424 29.9293 25.8743 29.9293C26.0233 29.9293 26.176 29.8835 26.308 29.7881C26.6436 29.5457 26.7209 29.0742 26.4815 28.7345L26.4305 28.6638C25.682 27.6045 25.1879 26.904 25.0465 25.0468C24.9975 24.247 25.5179 23.4167 26.0685 22.5387C26.2175 22.302 26.3702 22.0577 26.5135 21.8115C27.907 19.5305 28.829 17.0167 29.176 14.5392C29.2589 13.9475 29.3098 13.3539 29.3268 12.7736C29.34 12.3575 29.0157 12.0082 28.6046 11.9968C28.5952 11.9968 28.5877 11.9968 28.5782 11.9968C28.1747 11.993 27.8485 12.3174 27.8372 12.7259ZM13.1182 10.8038C11.127 11.8422 8.81906 13.0084 6.61668 13.7108C6.22448 13.8368 6.00575 14.2605 6.12831 14.6575C6.22825 14.9801 6.5224 15.1863 6.83918 15.1863C6.91272 15.1863 6.98814 15.1748 7.06357 15.1519C9.3772 14.4151 11.7549 13.2145 13.8008 12.1476C14.7455 11.6551 15.8995 11.7276 16.7367 12.3308C17.0723 12.5732 17.5381 12.493 17.7775 12.1533C18.017 11.8135 17.9378 11.3421 17.6022 11.0997C16.88 10.5786 16.007 10.3133 15.1264 10.3133C14.44 10.3133 13.748 10.4755 13.1182 10.8038ZM10.9158 8.0476L10.7556 8.12967C9.66192 8.69084 8.23075 9.40471 6.84861 9.95061C6.46583 10.1014 6.27539 10.5404 6.42435 10.9279C6.53937 11.2256 6.82033 11.4089 7.12014 11.4089C7.21065 11.4089 7.30115 11.3917 7.39166 11.3573C8.83414 10.7885 10.3068 10.0537 11.4306 9.47724L11.5928 9.39326C11.9605 9.20429 12.1075 8.75001 11.9209 8.37781C11.7889 8.11631 11.5268 7.96552 11.2553 7.96552C11.1402 7.96552 11.0252 7.99224 10.9158 8.0476ZM13.7914 6.93671C13.3841 7.00734 13.1126 7.39672 13.1823 7.80901C13.2521 8.21938 13.6368 8.49615 14.0441 8.42553C15.9485 8.09341 17.9529 8.73474 19.4067 10.1415C20.7794 11.47 21.4337 13.3023 21.2018 15.1672C21.1773 15.358 21.1471 15.5604 21.1056 15.8047C21.034 16.2151 21.3055 16.6064 21.7109 16.6789C21.7543 16.6865 21.7976 16.6903 21.841 16.6903C22.1955 16.6903 22.5104 16.4327 22.5745 16.0662C22.6216 15.799 22.6556 15.5737 22.682 15.3561C22.9724 13.0103 22.154 10.7122 20.4362 9.05159C18.956 7.62004 17.0063 6.83173 15.0378 6.83173C14.6229 6.82983 14.2062 6.86418 13.7914 6.93671ZM4.08432 6.70003C3.75623 7.41008 3.26975 9.0535 3.24712 9.13558C2.99822 10.0308 2.77195 11.0023 2.79646 12.0311C2.80778 12.493 2.91903 12.9091 3.01708 13.2756C3.09627 13.5677 3.16981 13.8444 3.18301 14.1021C3.22826 15.0202 2.20438 16.133 1.38226 17.0282C1.11639 17.3183 0.863724 17.5913 0.652537 17.8528C0.524317 18.0112 0.133998 18.4922 0.239591 19.0877C0.284846 19.3358 0.433808 19.689 0.888237 19.9543C1.36906 20.2349 1.88949 20.4315 2.43254 20.5345C2.47968 20.5441 2.52682 20.5479 2.57208 20.5479C2.9228 20.5479 3.23581 20.2959 3.30369 19.9333C3.381 19.5229 3.11513 19.1278 2.70972 19.0514C2.40803 18.9942 2.11765 18.8949 1.84423 18.7594C2.0196 18.5475 2.24021 18.309 2.47214 18.057C3.48659 16.9537 4.74994 15.5814 4.67075 14.0258C4.65 13.6058 4.5463 13.2203 4.45579 12.8805C4.37282 12.5675 4.29363 12.2735 4.28608 11.9929C4.26723 11.1646 4.46522 10.3247 4.67829 9.55359C4.81028 9.10885 5.2006 7.84336 5.43441 7.33946C5.60977 6.96153 5.44761 6.51298 5.07615 6.33546C4.97433 6.28774 4.86685 6.26484 4.76125 6.26484C4.4803 6.26484 4.21066 6.42517 4.08432 6.70003ZM18.2716 4.69586C18.1169 5.08143 18.2998 5.52234 18.6807 5.67886C21.3168 6.76302 23.3853 9.01533 24.215 11.7028C24.3149 12.0254 24.6091 12.2334 24.9258 12.2334C24.9994 12.2334 25.0748 12.222 25.1483 12.1991C25.5424 12.075 25.7612 11.6513 25.6386 11.2524C24.6788 8.13922 22.2879 5.5338 19.2426 4.28167C19.1502 4.24349 19.056 4.22631 18.9617 4.22631C18.6675 4.2244 18.3885 4.40192 18.2716 4.69586ZM8.75683 5.41355C8.41931 5.65405 8.33823 6.12359 8.57582 6.46526C8.72101 6.67331 8.95105 6.78592 9.18675 6.78592C9.33571 6.78592 9.48468 6.74202 9.61478 6.6485C11.491 5.31238 13.7989 4.73022 16.1163 5.00889C16.5236 5.05852 16.897 4.76267 16.946 4.34847C16.995 3.93428 16.7027 3.55826 16.2936 3.51054C15.8542 3.45709 15.4168 3.43228 14.9793 3.43228C12.7486 3.43037 10.5783 4.11561 8.75683 5.41355ZM8.60976 1.92056C8.24961 2.1248 8.12139 2.58289 8.32126 2.94746C8.52114 3.31203 8.97556 3.44182 9.33571 3.2395C11.259 2.15343 13.4444 1.5789 15.6562 1.5789C18.3809 1.5789 21.0943 2.47219 23.2967 4.09461C24.8862 5.26657 26.0742 6.5626 26.8265 7.94644C26.9623 8.19648 27.2168 8.33773 27.4808 8.33773C27.6015 8.33773 27.7259 8.30719 27.8391 8.2442C28.1992 8.04378 28.3312 7.58378 28.1332 7.21921C27.2753 5.63878 25.9441 4.17669 24.1735 2.87302C21.7184 1.06545 18.6939 0.0690918 15.6562 0.0690918C13.1918 0.0690918 10.7537 0.708517 8.60976 1.92056Z"/>
</svg>
