<svg xmlns="http://www.w3.org/2000/svg" viewBox="0 0 24 24" fill="currentColor">
  <path d="M18.453 14.555c-.171-.111-.658-.147-1.135.005-.489.155-.867.408-1.024.647.112.219.233.458.362.72.328.663.714 1.515 1.088 2.398.241.57.473 1.146.68 1.702.08.216.156.426.227.629h3.849c-.163-.519-.395-1.186-.674-1.931-.45-1.197-1.028-2.574-1.573-3.671-.27-.544-.532-1.022-.765-1.405.309-.26.607-.504.79-.636.275-.2.55-.294.55-.294s-.275-.319-.813-.319c-.399 0-.899.155-1.224.318-.238.12-.338.239-.338.239s.141.093.405.285c.16.116.397.314.595.514zM6.545 6.136L3.5 20.455h3.182l1.409-6.364 1.773 6.364h2.772l1.773-6.364 1.409 6.364h3.182L15.955 6.136h-3.591L10.5 13.273 8.636 6.136z"/>
</svg>
